<svg id="visual" viewBox="0 0 900 600" width="900" height="600" xmlns="http://www.w3.org/2000/svg" xmlns:xlink="http://www.w3.org/1999/xlink" version="1.1"><rect x="0" y="0" width="900" height="600" fill="#001220"></rect><path d="M0 132L25 138.5C50 145 100 158 150 170C200 182 250 193 300 183.5C350 174 400 144 450 131.3C500 118.7 550 123.3 600 144.8C650 166.3 700 204.7 750 224.8C800 245 850 247 875 248L900 249L900 601L875 601C850 601 800 601 750 601C700 601 650 601 600 601C550 601 500 601 450 601C400 601 350 601 300 601C250 601 200 601 150 601C100 601 50 601 25 601L0 601Z" fill="#bc81d7"></path><path d="M0 204L25 207.3C50 210.7 100 217.3 150 237.3C200 257.3 250 290.7 300 288.8C350 287 400 250 450 232.2C500 214.3 550 215.7 600 227.5C650 239.3 700 261.7 750 275.3C800 289 850 294 875 296.5L900 299L900 601L875 601C850 601 800 601 750 601C700 601 650 601 600 601C550 601 500 601 450 601C400 601 350 601 300 601C250 601 200 601 150 601C100 601 50 601 25 601L0 601Z" fill="#a96dd1"></path><path d="M0 385L25 384.8C50 384.7 100 384.3 150 386.3C200 388.3 250 392.7 300 375.3C350 358 400 319 450 309C500 299 550 318 600 337.7C650 357.3 700 377.7 750 388.8C800 400 850 402 875 403L900 404L900 601L875 601C850 601 800 601 750 601C700 601 650 601 600 601C550 601 500 601 450 601C400 601 350 601 300 601C250 601 200 601 150 601C100 601 50 601 25 601L0 601Z" fill="#935acc"></path><path d="M0 430L25 419.2C50 408.3 100 386.7 150 389.3C200 392 250 419 300 429C350 439 400 432 450 434.7C500 437.3 550 449.7 600 459.5C650 469.3 700 476.7 750 464.7C800 452.7 850 421.3 875 405.7L900 390L900 601L875 601C850 601 800 601 750 601C700 601 650 601 600 601C550 601 500 601 450 601C400 601 350 601 300 601C250 601 200 601 150 601C100 601 50 601 25 601L0 601Z" fill="#7b48c7"></path><path d="M0 470L25 481C50 492 100 514 150 524.3C200 534.7 250 533.3 300 522.2C350 511 400 490 450 478.7C500 467.3 550 465.7 600 475.5C650 485.3 700 506.7 750 511.7C800 516.7 850 505.3 875 499.7L900 494L900 601L875 601C850 601 800 601 750 601C700 601 650 601 600 601C550 601 500 601 450 601C400 601 350 601 300 601C250 601 200 601 150 601C100 601 50 601 25 601L0 601Z" fill="#5e37c2"></path></svg>