<!-- <svg id="visual" viewBox="0 0 900 600" width="900" height="600" xmlns="http://www.w3.org/2000/svg" xmlns:xlink="http://www.w3.org/1999/xlink" version="1.1"><path d="M0 424L21.5 414.2C43 404.3 86 384.7 128.8 374.3C171.7 364 214.3 363 257.2 372.7C300 382.3 343 402.7 385.8 416.8C428.7 431 471.3 439 514.2 432.5C557 426 600 405 642.8 401.7C685.7 398.3 728.3 412.7 771.2 419.5C814 426.3 857 425.7 878.5 425.3L900 425L900 601L878.5 601C857 601 814 601 771.2 601C728.3 601 685.7 601 642.8 601C600 601 557 601 514.2 601C471.3 601 428.7 601 385.8 601C343 601 300 601 257.2 601C214.3 601 171.7 601 128.8 601C86 601 43 601 21.5 601L0 601Z" fill="#f4bb60"></path><path d="M0 429L21.5 429.8C43 430.7 86 432.3 128.8 432.3C171.7 432.3 214.3 430.7 257.2 433C300 435.3 343 441.7 385.8 449.7C428.7 457.7 471.3 467.3 514.2 469.5C557 471.7 600 466.3 642.8 458.7C685.7 451 728.3 441 771.2 443C814 445 857 459 878.5 466L900 473L900 601L878.5 601C857 601 814 601 771.2 601C728.3 601 685.7 601 642.8 601C600 601 557 601 514.2 601C471.3 601 428.7 601 385.8 601C343 601 300 601 257.2 601C214.3 601 171.7 601 128.8 601C86 601 43 601 21.5 601L0 601Z" fill="#fa8a7a"></path><path d="M0 454L21.5 461.5C43 469 86 484 128.8 487C171.7 490 214.3 481 257.2 473.5C300 466 343 460 385.8 460.2C428.7 460.3 471.3 466.7 514.2 468.3C557 470 600 467 642.8 473.2C685.7 479.3 728.3 494.7 771.2 494.7C814 494.7 857 479.3 878.5 471.7L900 464L900 601L878.5 601C857 601 814 601 771.2 601C728.3 601 685.7 601 642.8 601C600 601 557 601 514.2 601C471.3 601 428.7 601 385.8 601C343 601 300 601 257.2 601C214.3 601 171.7 601 128.8 601C86 601 43 601 21.5 601L0 601Z" fill="#d0709e"></path><path d="M0 481L21.5 482.5C43 484 86 487 128.8 491.3C171.7 495.7 214.3 501.3 257.2 508C300 514.7 343 522.3 385.8 524.7C428.7 527 471.3 524 514.2 525.2C557 526.3 600 531.7 642.8 531.2C685.7 530.7 728.3 524.3 771.2 522.3C814 520.3 857 522.7 878.5 523.8L900 525L900 601L878.5 601C857 601 814 601 771.2 601C728.3 601 685.7 601 642.8 601C600 601 557 601 514.2 601C471.3 601 428.7 601 385.8 601C343 601 300 601 257.2 601C214.3 601 171.7 601 128.8 601C86 601 43 601 21.5 601L0 601Z" fill="#806aab"></path><path d="M0 554L21.5 556.2C43 558.3 86 562.7 128.8 560.2C171.7 557.7 214.3 548.3 257.2 548.5C300 548.7 343 558.3 385.8 561.5C428.7 564.7 471.3 561.3 514.2 559.8C557 558.3 600 558.7 642.8 555.3C685.7 552 728.3 545 771.2 543.5C814 542 857 546 878.5 548L900 550L900 601L878.5 601C857 601 814 601 771.2 601C728.3 601 685.7 601 642.8 601C600 601 557 601 514.2 601C471.3 601 428.7 601 385.8 601C343 601 300 601 257.2 601C214.3 601 171.7 601 128.8 601C86 601 43 601 21.5 601L0 601Z" fill="#0f6292"></path></svg>  -->

<svg id="visual" xmlns="http://www.w3.org/2000/svg" xmlns:xlink="http://www.w3.org/1999/xlink" version="1.1" viewBox="0 365.97 900 235.03"><path d="M0 424L21.5 414.2C43 404.3 86 384.7 128.8 374.3C171.7 364 214.3 363 257.2 372.7C300 382.3 343 402.7 385.8 416.8C428.7 431 471.3 439 514.2 432.5C557 426 600 405 642.8 401.7C685.7 398.3 728.3 412.7 771.2 419.5C814 426.3 857 425.7 878.5 425.3L900 425L900 601L878.5 601C857 601 814 601 771.2 601C728.3 601 685.7 601 642.8 601C600 601 557 601 514.2 601C471.3 601 428.7 601 385.8 601C343 601 300 601 257.2 601C214.3 601 171.7 601 128.8 601C86 601 43 601 21.5 601L0 601Z" fill="#f4bb60"></path><path d="M0 429L21.5 429.8C43 430.7 86 432.3 128.8 432.3C171.7 432.3 214.3 430.7 257.2 433C300 435.3 343 441.7 385.8 449.7C428.7 457.7 471.3 467.3 514.2 469.5C557 471.7 600 466.3 642.8 458.7C685.7 451 728.3 441 771.2 443C814 445 857 459 878.5 466L900 473L900 601L878.5 601C857 601 814 601 771.2 601C728.3 601 685.7 601 642.8 601C600 601 557 601 514.2 601C471.3 601 428.7 601 385.8 601C343 601 300 601 257.2 601C214.3 601 171.7 601 128.8 601C86 601 43 601 21.5 601L0 601Z" fill="#fa8a7a"></path><path d="M0 454L21.5 461.5C43 469 86 484 128.8 487C171.7 490 214.3 481 257.2 473.5C300 466 343 460 385.8 460.2C428.7 460.3 471.3 466.7 514.2 468.3C557 470 600 467 642.8 473.2C685.7 479.3 728.3 494.7 771.2 494.7C814 494.7 857 479.3 878.5 471.7L900 464L900 601L878.5 601C857 601 814 601 771.2 601C728.3 601 685.7 601 642.8 601C600 601 557 601 514.2 601C471.3 601 428.7 601 385.8 601C343 601 300 601 257.2 601C214.3 601 171.7 601 128.8 601C86 601 43 601 21.5 601L0 601Z" fill="#d0709e"></path><path d="M0 481L21.5 482.5C43 484 86 487 128.8 491.3C171.7 495.7 214.3 501.3 257.2 508C300 514.7 343 522.3 385.8 524.7C428.7 527 471.3 524 514.2 525.2C557 526.3 600 531.7 642.8 531.2C685.7 530.7 728.3 524.3 771.2 522.3C814 520.3 857 522.7 878.5 523.8L900 525L900 601L878.5 601C857 601 814 601 771.2 601C728.3 601 685.7 601 642.8 601C600 601 557 601 514.2 601C471.3 601 428.7 601 385.8 601C343 601 300 601 257.2 601C214.3 601 171.7 601 128.8 601C86 601 43 601 21.5 601L0 601Z" fill="#806aab"></path><path d="M0 554L21.5 556.2C43 558.3 86 562.7 128.8 560.2C171.7 557.7 214.3 548.3 257.2 548.5C300 548.7 343 558.3 385.8 561.5C428.7 564.7 471.3 561.3 514.2 559.8C557 558.3 600 558.7 642.8 555.3C685.7 552 728.3 545 771.2 543.5C814 542 857 546 878.5 548L900 550L900 601L878.5 601C857 601 814 601 771.2 601C728.3 601 685.7 601 642.8 601C600 601 557 601 514.2 601C471.3 601 428.7 601 385.8 601C343 601 300 601 257.2 601C214.3 601 171.7 601 128.8 601C86 601 43 601 21.5 601L0 601Z" fill="#0f6292"></path></svg>

