<svg id="visual" viewBox="0 0 900 600" width="900" height="600" xmlns="http://www.w3.org/2000/svg" xmlns:xlink="http://www.w3.org/1999/xlink" version="1.1"><path d="M271 0L252.5 14.3C234 28.7 197 57.3 184.2 85.8C171.3 114.3 182.7 142.7 207.8 171.2C233 199.7 272 228.3 260.3 257C248.7 285.7 186.3 314.3 178.2 343C170 371.7 216 400.3 230.8 428.8C245.7 457.3 229.3 485.7 210 514.2C190.7 542.7 168.3 571.3 157.2 585.7L146 600L0 600L0 585.7C0 571.3 0 542.7 0 514.2C0 485.7 0 457.3 0 428.8C0 400.3 0 371.7 0 343C0 314.3 0 285.7 0 257C0 228.3 0 199.7 0 171.2C0 142.7 0 114.3 0 85.8C0 57.3 0 28.7 0 14.3L0 0Z" fill="#00C4C6" stroke-linecap="round" stroke-linejoin="miter"></path></svg>